<svg width="16" height="23" viewBox="0 0 16 23" fill="none" xmlns="http://www.w3.org/2000/svg">
<g clip-path="url(#clip0_5327_2757)">
<path fill-rule="evenodd" clip-rule="evenodd" d="M13.9179 14.6728L2.56571 14.6678C2.25323 14.6676 2.00002 14.4142 2.00016 14.1017L2.00018 14.0971C2.00288 13.781 2.25934 13.5259 2.57545 13.5249L13.9036 13.4879L9.45994 9.01638C9.23016 8.78517 9.22645 8.41298 9.45158 8.17723C9.67003 7.94846 10.0326 7.9401 10.2613 8.15856C10.2645 8.16153 10.2675 8.16453 10.2706 8.16757L15.8665 13.7575C16.0619 13.9526 16.0621 14.2692 15.8669 14.4646L15.8653 14.4662L10.1844 20.1004C9.95389 20.329 9.58163 20.3275 9.35297 20.097C9.34982 20.0938 9.3467 20.0906 9.34362 20.0873C9.11341 19.8443 9.11877 19.4622 9.35569 19.2257L13.9179 14.6728Z" fill="white"/>
</g>
<defs>
<clipPath id="clip0_5327_2757">
<rect width="16" height="23" fill="white"/>
</clipPath>
</defs>
</svg>
