<svg width="59" height="55" viewBox="0 0 59 55" fill="none" xmlns="http://www.w3.org/2000/svg">
<g clip-path="url(#clip0_5290_2453)">
<path d="M33.1902 44.9041H25.3802C25.1213 44.9041 24.8731 45.0069 24.69 45.1899C24.507 45.373 24.4042 45.6212 24.4042 45.8801V49.7851C24.4042 50.0439 24.507 50.2922 24.69 50.4752C24.8731 50.6582 25.1213 50.7611 25.3802 50.7611H33.1902C33.4488 50.7605 33.6966 50.6575 33.8794 50.4745C34.0621 50.2916 34.1649 50.0437 34.1652 49.7851V45.8801C34.1652 45.6212 34.0623 45.373 33.8793 45.1899C33.6963 45.0069 33.449 44.9041 33.1902 44.9041ZM32.2132 48.8091H26.3562V46.8561H32.2132V48.8091ZM40.9992 44.9041H37.0942C36.8353 44.9041 36.5871 45.0069 36.404 45.1899C36.221 45.373 36.1182 45.6212 36.1182 45.8801V49.7851C36.1182 50.0439 36.221 50.2922 36.404 50.4752C36.5871 50.6582 36.8353 50.7611 37.0942 50.7611H41.0002C41.2589 50.7608 41.507 50.6579 41.69 50.4749C41.873 50.2919 41.9759 50.0438 41.9762 49.7851V45.8801C41.9762 45.6212 41.8734 45.373 41.6903 45.1899C41.5073 45.0069 41.258 44.9041 40.9992 44.9041ZM40.0232 48.8091H38.0702V46.8561H40.0232V48.8091ZM48.8082 44.9041H44.9032C44.6443 44.9041 44.3961 45.0069 44.213 45.1899C44.03 45.373 43.9272 45.6212 43.9272 45.8801V49.7851C43.9272 50.0439 44.03 50.2922 44.213 50.4752C44.3961 50.6582 44.6443 50.7611 44.9032 50.7611H48.8082C49.0669 50.7608 49.315 50.6579 49.498 50.4749C49.681 50.2919 49.7839 50.0438 49.7842 49.7851V45.8801C49.7839 45.6213 49.681 45.3732 49.498 45.1902C49.315 45.0072 49.0669 44.9043 48.8082 44.9041ZM47.8322 48.8091H45.8792V46.8561H47.8322V48.8091ZM21.4752 44.9041H17.5702C17.3113 44.9041 17.0631 45.0069 16.88 45.1899C16.697 45.373 16.5942 45.6212 16.5942 45.8801V49.7851C16.5942 50.0439 16.697 50.2922 16.88 50.4752C17.0631 50.6582 17.3113 50.7611 17.5702 50.7611H21.4752C21.7339 50.7608 21.982 50.6579 22.165 50.4749C22.348 50.2919 22.4509 50.0438 22.4512 49.7851V45.8801C22.4509 45.6213 22.348 45.3732 22.165 45.1902C21.982 45.0072 21.7339 44.9043 21.4752 44.9041ZM20.5002 48.8101H18.5482V46.8571H20.5002V48.8101ZM13.6662 44.9041H9.76018C9.50133 44.9041 9.25308 45.0069 9.07004 45.1899C8.88701 45.373 8.78418 45.6212 8.78418 45.8801V49.7851C8.78418 50.0439 8.88701 50.2922 9.07004 50.4752C9.25308 50.6582 9.50133 50.7611 9.76018 50.7611H13.6652C13.9239 50.7608 14.172 50.6579 14.355 50.4749C14.538 50.2919 14.6409 50.0438 14.6412 49.7851V45.8801C14.6412 45.6212 14.5384 45.373 14.3553 45.1899C14.1723 45.0069 13.924 44.9041 13.6652 44.9041H13.6662ZM12.6892 48.8091H10.7372V46.8561H12.6892V48.8091Z" fill="#1253A2"/>
<path d="M55.641 1.952H42.843C41.5696 0.700675 39.8558 -0.000488281 38.0705 -0.000488281C36.2852 -0.000488281 34.5714 0.700675 33.298 1.952H2.928C2.15135 1.95226 1.40661 2.26097 0.857531 2.81024C0.308453 3.3595 -4.52641e-08 4.10435 0 4.881L0 51.737C-4.52641e-08 52.5136 0.308453 53.2585 0.857531 53.8078C1.40661 54.357 2.15135 54.6657 2.928 54.666H55.642C56.4186 54.6657 57.1634 54.357 57.7125 53.8078C58.2615 53.2585 58.57 52.5136 58.57 51.737V4.881C58.57 4.10435 58.2615 3.3595 57.7125 2.81024C57.1634 2.26097 56.4176 1.95226 55.641 1.952ZM52.713 7.81V17.572H25.38V7.81H31.375C32.203 11.203 36.888 14.96 37.47 15.413C37.6415 15.5466 37.8526 15.6192 38.07 15.6192C38.2874 15.6192 38.4985 15.5466 38.67 15.413C39.256 14.959 43.942 11.203 44.766 7.81H52.713ZM52.713 25.382H41.975C41.7161 25.382 41.4679 25.4848 41.2849 25.6679C41.1018 25.8509 40.999 26.0991 40.999 26.358V41H35.142V26.357C35.142 26.2287 35.1167 26.1017 35.0676 25.9833C35.0185 25.8648 34.9465 25.7572 34.8558 25.6665C34.765 25.5759 34.6573 25.504 34.5388 25.455C34.4203 25.406 34.2933 25.3809 34.165 25.381H24.404C24.1451 25.381 23.8969 25.4838 23.7139 25.6669C23.5308 25.8499 23.428 26.0981 23.428 26.357V40.999H17.57V26.357C17.57 26.0981 17.4672 25.8499 17.2841 25.6669C17.1011 25.4838 16.8529 25.381 16.594 25.381H5.856V19.523H16.594C16.8528 19.5227 17.1009 19.4198 17.2838 19.2368C17.4668 19.0539 17.5697 18.8058 17.57 18.547V7.81H23.428V18.548C23.4283 18.8068 23.5312 19.0549 23.7142 19.2378C23.8971 19.4208 24.1452 19.5237 24.404 19.524H52.713V25.382ZM52.713 27.334V41H42.95V27.333H52.712L52.713 27.334ZM33.189 40.999H25.379V27.333H33.189V40.999ZM5.856 27.333H15.618V40.999H5.856V27.333ZM5.856 17.571V7.81H15.618V17.572H5.856V17.571ZM38.07 1.952C39.3638 1.95438 40.6039 2.46939 41.5188 3.38424C42.4336 4.29909 42.9486 5.53921 42.951 6.833C42.951 8.658 40.168 11.616 38.071 13.385C35.972 11.616 33.189 8.658 33.189 6.833C33.1916 5.53938 33.7068 4.29952 34.6216 3.38488C35.5364 2.47025 36.7764 1.95438 38.07 1.952ZM56.617 51.737C56.617 51.9958 56.5142 52.2441 56.3311 52.4271C56.1481 52.6102 55.8999 52.713 55.641 52.713H2.928C2.66915 52.713 2.4209 52.6102 2.23786 52.4271C2.05483 52.2441 1.952 51.9958 1.952 51.737V4.881C1.952 4.341 2.389 3.905 2.928 3.905H31.905C31.611 4.52218 31.4121 5.1803 31.315 5.857H5.856C5.33838 5.85726 4.84203 6.063 4.47602 6.42902C4.11001 6.79503 3.90427 7.29138 3.904 7.809V41C3.904 41.5178 4.10962 42.0144 4.47567 42.3806C4.84171 42.7469 5.33821 42.9527 5.856 42.953H52.712C53.23 42.953 53.7267 42.7472 54.093 42.381C54.4592 42.0147 54.665 41.518 54.665 41V7.81C54.6647 7.2922 54.4589 6.79571 54.0926 6.42967C53.7264 6.06362 53.2298 5.858 52.712 5.858H44.825C44.7279 5.18129 44.529 4.52318 44.235 3.906H55.64C55.8989 3.906 56.1471 4.00883 56.3301 4.19186C56.5132 4.3749 56.616 4.62315 56.616 4.882V51.738L56.617 51.737Z" fill="black"/>
<path d="M12.6902 21.476H16.5942V23.428H12.6902V21.476ZM8.78516 21.476H10.7372V23.428H8.78516V21.476ZM19.5232 14.643H21.4752V18.547H19.5232V14.643ZM19.5232 10.738H21.4752V12.69H19.5232V10.738ZM19.5232 26.357H21.4752V30.262H19.5232V26.357ZM19.5232 32.214H21.4752V36.119H19.5232V32.214ZM24.4042 21.476H28.3082V23.428H24.4042V21.476ZM30.2602 21.476H34.1652V23.428H30.2612L30.2602 21.476ZM36.1182 21.476H40.0232V23.428H36.1182V21.476ZM41.9752 21.476H45.8792V23.428H41.9752V21.476ZM37.0942 26.357H39.0462V30.262H37.0942V26.357ZM37.0942 32.214H39.0462V36.119H37.0942V32.214Z" fill="black"/>
<path d="M38.0701 9.76205C38.8469 9.76205 39.5919 9.45346 40.1412 8.90417C40.6905 8.35487 40.9991 7.60987 40.9991 6.83305C40.9991 6.05623 40.6905 5.31123 40.1412 4.76194C39.5919 4.21264 38.8469 3.90405 38.0701 3.90405C37.2933 3.90405 36.5483 4.21264 35.999 4.76194C35.4497 5.31123 35.1411 6.05623 35.1411 6.83305C35.1411 7.60987 35.4497 8.35487 35.999 8.90417C36.5483 9.45346 37.2933 9.76205 38.0701 9.76205ZM38.0701 5.85705C38.2008 5.85287 38.3311 5.875 38.4531 5.92214C38.5751 5.96928 38.6864 6.04046 38.7804 6.13146C38.8743 6.22246 38.949 6.33141 39 6.45185C39.0511 6.57229 39.0774 6.70175 39.0774 6.83255C39.0774 6.96335 39.0511 7.09282 39 7.21326C38.949 7.33369 38.8743 7.44265 38.7804 7.53365C38.6864 7.62464 38.5751 7.69583 38.4531 7.74297C38.3311 7.7901 38.2008 7.81224 38.0701 7.80805C37.8168 7.79994 37.5766 7.69361 37.4003 7.51155C37.2239 7.3295 37.1254 7.086 37.1254 6.83255C37.1254 6.57911 37.2239 6.33561 37.4003 6.15355C37.5766 5.97149 37.8168 5.86516 38.0701 5.85705Z" fill="#1253A2"/>
</g>
<defs>
<clipPath id="clip0_5290_2453">
<rect width="59" height="55" fill="white"/>
</clipPath>
</defs>
</svg>
