<svg width="53" height="66" viewBox="0 0 53 66" fill="none" xmlns="http://www.w3.org/2000/svg">
<g clip-path="url(#clip0_5290_2461)">
<path fill-rule="evenodd" clip-rule="evenodd" d="M26.56 0C26.7077 0.0874807 33.2061 2.04537 39.5672 3.95524L40.3612 4.19359C45.5111 5.7394 50.3919 7.20074 51.5236 7.54861C51.8368 7.6449 52.0639 7.75722 52.2215 7.9355C52.4606 8.20576 52.4184 8.34665 52.57 8.66349V35.0065C52.2937 35.7745 52.8968 43.7289 47.8248 51.2917C47.1587 52.2849 46.6896 52.9332 45.9344 53.7916L44.6876 55.1474C43.5809 56.2817 42.346 57.3491 40.9248 58.375C38.1657 60.3665 35.0302 61.9374 31.7714 63.2053C30.9004 63.5442 30.0824 63.8389 29.1892 64.1457C28.5598 64.362 27.0363 64.7656 26.5842 65.0351H26.0136C25.6393 64.8122 23.9383 64.3385 23.379 64.1474C22.487 63.8425 21.6662 63.5427 20.7948 63.2089C16.1159 61.4168 11.319 58.7158 7.85778 55.1177L6.18985 53.2632C3.34942 49.8029 1.61039 45.7457 0.693753 41.2532C0.49447 40.2765 0.336105 39.2129 0.232478 38.1949C0.18115 37.6911 0.0654642 35.1469 0 34.9589V8.66202C0.153103 8.34376 0.107669 8.2089 0.349948 7.93711C0.511881 7.75544 0.748672 7.64616 1.04946 7.55405C1.60935 7.38257 2.16445 7.21883 2.71463 7.04843C8.21579 5.34523 13.8509 3.69458 19.3691 2.02774C19.5628 1.96921 20.9975 1.54464 22.4846 1.09836L23.0424 0.930662C24.5241 0.484335 25.9095 0.0593392 26.0098 0H26.56ZM26.284 2.64288C26.0298 2.64097 23.723 3.38932 23.2997 3.52023C17.436 5.33396 11.4197 7.04127 5.55851 8.8641C5.03561 9.02676 2.86769 9.64216 2.57489 9.78255C2.51474 12.9304 2.57259 16.1391 2.57259 19.2937V28.8323C2.57259 35.1708 2.40257 40.25 4.73135 45.7254C5.7291 48.0711 6.94518 50.0589 8.30132 51.6941C8.97694 52.5088 9.84891 53.4781 10.6186 54.1464L11.2469 54.711C14.353 57.5125 18.6343 59.6669 22.6656 61.1756C23.1502 61.3569 25.956 62.3853 26.2842 62.3823C26.6461 62.379 29.3555 61.3698 29.8592 61.1851C37.3464 58.4396 44.6435 53.5613 47.8686 45.809C50.2104 40.1799 49.9938 35.3641 49.9984 28.8864C50.0007 25.7069 49.9996 22.5274 50.0018 19.3479C50.004 16.1687 50.053 12.9495 50.0027 9.77518L47.0541 8.87551C46.0731 8.58247 45.0871 8.29006 44.0979 7.98306C42.1227 7.37008 40.1618 6.8148 38.1841 6.20272C37.6514 6.03783 26.5444 2.64487 26.284 2.64288Z" fill="#1253A2"/>
<path fill-rule="evenodd" clip-rule="evenodd" d="M45.2716 13.8742L45.2721 32.084C45.2721 34.1038 45.2811 35.9989 45.0313 37.9826C43.6901 48.6352 35.7055 53.5898 27.1747 56.6571C26.6648 56.8404 26.5275 56.9272 25.9588 56.9489C24.5303 57.0032 24.2983 58.9355 25.5601 59.4184C26.4784 59.7698 27.1536 59.3787 27.9803 59.0884C35.1309 56.5777 40.5466 53.4644 44.1952 47.8267C45.7493 45.4254 46.9242 42.328 47.4588 38.9543C48.0467 35.245 47.8392 30.9808 47.8392 27.1522C47.8392 23.0875 47.8392 19.0228 47.8392 14.9581C47.8392 12.9836 48.1722 12.0086 46.7024 11.5585L31.5075 6.97073C29.9667 6.51081 28.3898 6.05487 26.8449 5.56609C25.8603 5.25453 25.0886 5.7674 25.013 6.60972C24.9118 7.73758 25.9167 7.96112 26.5807 8.15807C29.7141 9.08758 32.8461 10.0367 35.9532 10.9792L44.9931 13.6985C45.2008 13.7615 45.1862 13.7207 45.2716 13.8742Z" fill="black"/>
<path fill-rule="evenodd" clip-rule="evenodd" d="M6.25403 12.1313C5.21954 12.444 5.32638 13.3341 5.32638 14.4702V30.729C5.32638 32.8392 5.2744 34.9847 5.46322 37.0708C5.97718 42.7475 7.83739 46.9031 11.3782 50.6768C12.032 51.3737 13.2127 52.3607 13.9826 52.9503C14.328 53.2148 14.671 53.4232 15.2238 53.2717C16.0681 53.0406 16.467 52.0117 15.876 51.2183L14.5491 50.108C13.4403 49.2171 11.9678 47.5976 11.0994 46.2399C7.63499 40.8238 7.8861 36.1218 7.8861 29.9161L7.88662 13.6561C7.88784 13.1006 7.82869 12.7475 7.51018 12.434C7.2243 12.1525 6.76605 11.9766 6.25403 12.1313Z" fill="black"/>
<path fill-rule="evenodd" clip-rule="evenodd" d="M22.3828 39.3208C20.5475 37.5771 18.1483 35.0973 16.2982 33.2367C15.7614 32.697 14.7901 32.4586 14.2349 33.2038C13.5372 34.1404 14.2304 34.8278 14.6866 35.2818L20.7837 41.3787C21.1553 41.7483 21.7753 42.6403 22.7175 42.3876C23.2618 42.2417 24.0396 41.3223 24.3895 40.9735L36.6167 28.7583C37.1356 28.2394 37.6138 27.7589 38.1349 27.2417C39.3717 26.0144 38.1751 24.6042 37.0224 24.9346C36.4251 25.1057 35.0564 26.6488 34.5924 27.1135C32.5482 29.1608 30.5397 31.164 28.4954 33.2105C26.4553 35.2529 24.4443 37.3241 22.3828 39.3208Z" fill="#1253A2"/>
</g>
<defs>
<clipPath id="clip0_5290_2461">
<rect width="53" height="66" fill="white"/>
</clipPath>
</defs>
</svg>
