<svg width="40" height="80" viewBox="0 0 40 80" fill="none" xmlns="http://www.w3.org/2000/svg">
<g clip-path="url(#clip0_5290_2695)">
<path fill-rule="evenodd" clip-rule="evenodd" d="M0 80C22.0914 80 40 62.0914 40 40C40 17.9086 19.5657 0 0 0V80Z" fill="#A6B7D4" fill-opacity="0.471045"/>
<path fill-rule="evenodd" clip-rule="evenodd" d="M11.587 38.9506C11.0751 39.3752 10.8191 39.7929 10.8191 40.2038C10.8191 40.6147 11.0857 41.0803 11.6189 41.6007L21.5574 51.6013C22.0713 52.1184 22.0796 52.9508 21.5761 53.4781C21.0875 53.9897 20.2767 54.0084 19.765 53.5199C19.7581 53.5132 19.7512 53.5065 19.7444 53.4997L7.8556 41.6238C7.07412 40.8432 7.07344 39.5769 7.85406 38.7954C7.85626 38.7932 7.85847 38.791 7.86068 38.7888L19.937 26.8117C20.4526 26.3003 21.2852 26.3038 21.7966 26.8194C21.8036 26.8265 21.8106 26.8337 21.8175 26.841C22.3324 27.3844 22.3204 28.2391 21.7905 28.7679L11.587 38.9506Z" fill="white"/>
</g>
<defs>
<clipPath id="clip0_5290_2695">
<rect width="40" height="80" fill="white"/>
</clipPath>
</defs>
</svg>
