<svg width="60" height="28" viewBox="0 0 60 28" fill="none" xmlns="http://www.w3.org/2000/svg">
<g clip-path="url(#clip0_5290_2443)">
<path fill-rule="evenodd" clip-rule="evenodd" d="M44.2654 0.00796921C48.2474 -0.110031 51.1656 1.09397 53.5246 2.84997C55.6493 4.43197 57.5991 6.90297 58.4216 9.94297C59.5348 14.063 58.9616 16.535 57.5317 19.913C57.034 21.09 55.7318 22.648 54.9656 23.417C50.339 28.057 42.911 28.923 37.2567 25.269C36.4191 24.728 34.4482 23.109 34.044 22.463C34.2521 22.041 38.1346 18.284 38.3528 18.203C38.7831 18.463 39.3221 19.122 39.7766 19.509C40.3116 19.964 40.748 20.266 41.4207 20.597C45.6561 22.675 50.7985 20.535 52.2314 16.714C55.3366 8.43697 45.271 2.55197 39.1572 8.60097L25.6425 22.04C23.8959 23.771 22.4077 25.47 19.4604 26.674C10.4838 30.34 1.00041 24.136 0.181883 15.505C-0.3943 9.44797 2.62237 4.18997 7.78388 1.65397C13.1757 -0.997031 19.6575 0.00996876 23.9572 4.19997L24.7355 4.97697L25.0674 5.30897C26.5938 6.82897 29.169 9.36097 29.526 9.46397C29.8377 9.27897 35.0113 4.06097 35.6478 3.48697C37.5584 1.76297 40.8435 0.108969 44.2654 0.00796921ZM8.95033 8.15497C5.36351 11.091 5.29212 16.738 8.98552 19.813C10.4667 21.046 12.9575 22.003 15.6011 21.471C18.2658 20.936 19.3669 19.626 20.7928 18.211C21.373 17.638 24.8974 14.259 25.0362 13.866C24.7778 13.386 21.2312 10.112 20.7576 9.64397C19.2563 8.16497 18.2055 6.97497 15.4995 6.43897C12.8629 5.91597 10.4808 6.90197 8.95033 8.15497Z" fill="#1253A2"/>
</g>
<defs>
<clipPath id="clip0_5290_2443">
<rect x="0.111328" width="59.3278" height="28" rx="10" fill="white"/>
</clipPath>
</defs>
</svg>
